<?xml version="1.0" standalone="no"?>
<!DOCTYPE svg PUBLIC "-//W3C//DTD SVG 20010904//EN"
 "http://www.w3.org/TR/2001/REC-SVG-20010904/DTD/svg10.dtd">
<svg version="1.0" xmlns="http://www.w3.org/2000/svg"
 width="512.000000pt" height="512.000000pt" viewBox="0 0 512.000000 512.000000"
 preserveAspectRatio="xMidYMid meet">

<g transform="translate(0.000000,512.000000) scale(0.100000,-0.100000)"
fill="#FF4B57" stroke="none">
<path d="M3226 4869 c-297 -41 -569 -195 -744 -423 l-45 -59 -66 6 c-84 8
-223 -6 -326 -33 -308 -81 -578 -327 -691 -628 -18 -48 -38 -116 -44 -152 -19
-98 -16 -93 -58 -86 -289 52 -555 0 -792 -156 -83 -54 -224 -195 -278 -278
-97 -147 -154 -308 -171 -480 -25 -234 36 -474 171 -680 54 -83 195 -224 278
-278 133 -87 303 -152 435 -166 33 -4 79 -9 102 -12 l43 -5 0 80 0 81 -50 0
c-116 0 -276 48 -404 123 -84 48 -222 178 -276 260 -100 149 -150 312 -150
489 0 243 78 442 240 612 116 121 249 203 407 248 65 19 103 23 228 23 127 0
164 -4 242 -24 76 -20 97 -22 118 -13 30 14 45 48 45 102 0 118 61 304 140
425 113 172 272 292 480 361 80 27 95 28 265 29 100 1 186 5 193 9 7 4 31 35
54 69 135 199 376 353 622 396 85 16 273 13 353 -3 359 -76 630 -326 739 -681
26 -83 28 -104 28 -260 1 -159 -1 -176 -28 -269 -37 -126 -32 -139 69 -176
158 -59 259 -125 365 -237 240 -253 307 -615 175 -940 -84 -208 -264 -389
-476 -479 -82 -34 -213 -64 -281 -64 l-58 0 0 -81 0 -80 43 5 c23 3 69 8 102
12 200 21 429 135 586 293 394 394 405 1028 24 1439 -90 97 -226 192 -345 241
l-56 23 19 86 c24 116 25 327 2 437 -95 454 -438 796 -884 881 -99 19 -259 25
-345 13z"/>
<path d="M3520 4466 c-205 -45 -342 -241 -309 -445 28 -180 165 -308 352 -333
151 -19 212 -54 253 -143 42 -88 25 -204 -39 -274 -36 -39 -115 -71 -177 -71
-62 0 -141 32 -177 71 -29 32 -63 107 -63 142 l0 27 -80 0 c-78 0 -80 -1 -76
-22 3 -13 8 -41 11 -62 10 -61 58 -146 112 -197 156 -151 390 -151 546 0 160
153 160 409 0 562 -69 67 -135 97 -252 113 -144 21 -198 54 -240 146 -42 92
-22 199 49 270 50 50 100 70 176 70 53 0 125 -28 163 -63 30 -28 71 -114 71
-149 l0 -28 80 0 c78 0 80 1 76 23 -3 12 -8 40 -11 62 -16 99 -111 220 -209
268 -29 15 -82 31 -117 36 -75 13 -68 13 -139 -3z"/>
<path d="M2800 3803 l0 -438 -30 -52 c-22 -39 -44 -61 -83 -83 -51 -29 -54
-30 -197 -30 -127 0 -149 3 -178 20 -59 36 -72 71 -72 193 l0 107 -81 0 -82 0
5 -118 c4 -99 9 -128 30 -173 36 -78 71 -114 144 -150 58 -29 75 -32 183 -37
197 -8 309 23 399 111 24 23 54 61 68 85 48 82 54 142 54 590 l0 412 -80 0
-80 0 0 -437z"/>
<path d="M2080 3840 l0 -80 80 0 80 0 0 80 0 80 -80 0 -80 0 0 -80z"/>
<path d="M2400 3840 l0 -80 80 0 80 0 0 80 0 80 -80 0 -80 0 0 -80z"/>
<path d="M720 2400 l0 -560 80 0 80 0 0 240 0 240 160 0 160 0 0 -240 0 -240
80 0 80 0 0 560 0 560 -80 0 -80 0 0 -240 0 -240 -160 0 -160 0 0 240 0 240
-80 0 -80 0 0 -560z"/>
<path d="M1520 2880 l0 -80 120 0 120 0 0 -480 0 -480 80 0 80 0 0 480 0 480
120 0 120 0 0 80 0 80 -320 0 -320 0 0 -80z"/>
<path d="M2370 2947 c-50 -25 -50 -26 -50 -584 l0 -523 80 0 80 0 1 303 0 302
45 -120 c50 -133 68 -158 114 -158 46 0 64 25 114 158 l45 120 0 -302 1 -303
80 0 81 0 -3 535 -3 534 -22 22 c-26 27 -75 29 -101 6 -10 -10 -57 -118 -103
-242 -46 -124 -86 -225 -89 -225 -3 0 -43 101 -89 225 -46 124 -91 231 -100
239 -25 22 -54 27 -81 13z"/>
<path d="M3122 2488 c3 -463 3 -474 25 -513 25 -47 64 -85 113 -111 30 -16 64
-19 228 -22 l192 -4 0 81 0 81 -180 0 c-167 0 -181 1 -200 20 -19 19 -20 33
-20 480 l0 460 -80 0 -81 0 3 -472z"/>
<path d="M3440 2480 l0 -80 80 0 80 0 0 80 0 80 -80 0 -80 0 0 -80z"/>
<path d="M3760 2480 l0 -80 80 0 80 0 0 80 0 80 -80 0 -80 0 0 -80z"/>
<path d="M1612 1669 c-160 -27 -295 -166 -322 -330 -13 -83 -13 -675 0 -758
52 -317 432 -445 663 -222 54 51 102 136 112 197 3 21 8 49 11 61 4 22 2 23
-76 23 l-80 0 0 -27 c0 -35 -34 -110 -63 -142 -56 -60 -169 -86 -261 -59 -54
16 -128 90 -144 144 -8 29 -12 149 -12 413 0 358 1 373 21 416 52 110 177 160
303 123 78 -23 156 -126 156 -207 0 -20 5 -21 80 -21 78 0 80 1 76 23 -3 12
-8 40 -11 61 -16 100 -110 219 -211 270 -42 20 -162 50 -184 45 -3 -1 -29 -5
-58 -10z"/>
<path d="M2560 1666 c-79 -17 -141 -51 -199 -110 -155 -158 -155 -394 1 -552
66 -68 137 -102 241 -115 151 -20 212 -54 253 -144 42 -88 25 -204 -39 -274
-36 -39 -115 -71 -177 -71 -62 0 -141 32 -177 71 -29 32 -63 107 -63 142 l0
27 -80 0 c-78 0 -80 -1 -76 -23 3 -12 8 -40 11 -61 10 -61 58 -146 112 -197
156 -151 390 -151 546 0 160 153 160 409 0 562 -69 67 -135 97 -252 113 -144
21 -198 54 -240 146 -23 51 -27 123 -9 184 16 54 90 128 144 144 88 26 191 5
253 -51 30 -28 71 -114 71 -149 l0 -28 80 0 c78 0 80 1 76 23 -3 12 -8 40 -11
62 -16 99 -111 220 -209 268 -29 15 -82 31 -117 36 -75 13 -68 13 -139 -3z"/>
<path d="M3520 1666 c-205 -45 -342 -241 -309 -445 28 -180 165 -308 352 -333
151 -19 212 -54 253 -143 42 -88 25 -204 -39 -274 -36 -39 -115 -71 -177 -71
-62 0 -141 32 -177 71 -29 32 -63 107 -63 142 l0 27 -80 0 c-78 0 -80 -1 -76
-23 3 -12 8 -40 11 -61 10 -61 58 -146 112 -197 156 -151 390 -151 546 0 160
153 160 409 0 562 -69 67 -135 97 -252 113 -144 21 -198 54 -240 146 -23 51
-27 123 -9 184 16 54 90 128 144 144 88 26 191 5 253 -51 30 -28 71 -114 71
-149 l0 -28 80 0 c78 0 80 1 76 23 -3 12 -8 40 -11 62 -16 99 -111 220 -209
268 -29 15 -82 31 -117 36 -75 13 -68 13 -139 -3z"/>
<path d="M640 960 l0 -80 80 0 80 0 0 80 0 80 -80 0 -80 0 0 -80z"/>
<path d="M960 960 l0 -80 80 0 80 0 0 80 0 80 -80 0 -80 0 0 -80z"/>
</g>
</svg>